<svg xmlns="http://www.w3.org/2000/svg" aria-hidden="true" style="position:absolute;width:0;height:0;overflow:hidden"><defs><symbol id="menu-converted" viewBox="0 0 47 32"><path d="M.944.089C.803.13.532.317.343.506L0 .849v2.506l.332.332c.636.636-1.54.583 23.293.56l22.106-.019.407-.225.407-.227V.401L45.739 0 23.47.007C9.535.011 1.105.042.943.088zm.124 13.486c-.359.109-.742.384-.909.653-.141.23-.159.384-.159 1.412 0 1.004.02 1.187.151 1.401.217.355.735.628 1.364.72.742.108 43.081.108 43.821 0 .295-.042.679-.156.854-.252l.316-.175v-3.408l-.698-.39-22.263-.013c-12.246-.007-22.361.016-22.477.051zm.151 13.506c-.429.102-.7.26-.975.573L0 27.933v2.497l.332.332c.636.634-1.54.582 23.293.56 20.793-.019 22.122-.028 22.378-.154.573-.285.543-.17.543-2.022v-1.673l-.892-.438-22.071-.012c-12.748-.007-22.193.016-22.364.057z"/></symbol></defs></svg>